# xmcd
#
# Track frame offsets:
#	150
#	13143
#	36659
#	51132
#	67303
#	87306
#	100047
#	110600
#	121708
#	135314
#	156471
#	170884
#	186599
#
# Disc length: 2553 seconds
# Revision: 0
# Processed by: cddbd v1.5.2PL0 Copyright (c) Steve Scherf et al.
# Submitted via: dBpowerAMP V12.0
#
DISCID=c009f70d
DTITLE=Townes Van Zandt - Sunshine Boy: The Unheard Studio Sessions and Demos 1971-1972, Disc 2 of 2
DYEAR=2013
DGENRE=Americana
TTITLE0=Heavenly Houseboat Blues
TTITLE1=Diamond Heel Blues
TTITLE2=To Live Is to Fly
TTITLE3=Tower Song
TTITLE4=You Are Not Needed Now
TTITLE5=Mr. Mudd and Mr. Gold
TTITLE6=Highway Kind
TTITLE7=Greensboro Woman
TTITLE8=When He Offers His Hand
TTITLE9=Dead Flowers
TTITLE10=Old Paint
TTITLE11=Standin'
TTITLE12=[Untitled]
EXTD=
EXTT0=
EXTT1=
EXTT2=
EXTT3=
EXTT4=
EXTT5=
EXTT6=
EXTT7=
EXTT8=
EXTT9=
EXTT10=
EXTT11=
EXTT12=
PLAYORDER=
